<svg xmlns="http://www.w3.org/2000/svg" height="511pt" version="1.1" viewBox="-39 1 511 511.99995" width="511pt">
<g id="surface1">
<path d="M 174.058594 338.441406 L 217.449219 338.441406 L 217.449219 364.476562 L 174.058594 364.476562 Z M 174.058594 338.441406 " style=" stroke:none;fill-rule:nonzero;fill:rgb(100%,87.058824%,33.333333%);fill-opacity:1;" />
<path d="M 217.449219 338.441406 L 260.839844 338.441406 L 260.839844 364.476562 L 217.449219 364.476562 Z M 217.449219 338.441406 " style=" stroke:none;fill-rule:nonzero;fill:rgb(100%,89.411765%,46.666667%);fill-opacity:1;" />
<path d="M 286.875 216.949219 C 286.875 202.570312 275.21875 190.914062 260.839844 190.914062 C 246.460938 190.914062 234.804688 202.570312 234.804688 216.949219 L 234.804688 242.984375 L 260.839844 242.984375 C 275.21875 242.984375 286.875 231.328125 286.875 216.949219 Z M 286.875 216.949219 " style=" stroke:none;fill-rule:nonzero;fill:rgb(100%,89.411765%,46.666667%);fill-opacity:1;" />
<path d="M 174.058594 242.984375 L 200.09375 242.984375 L 200.09375 216.949219 C 200.09375 202.570312 188.4375 190.914062 174.058594 190.914062 C 159.679688 190.914062 148.023438 202.570312 148.023438 216.949219 C 148.023438 231.328125 159.679688 242.984375 174.058594 242.984375 Z M 174.058594 242.984375 " style=" stroke:none;fill-rule:nonzero;fill:rgb(100%,87.058824%,33.333333%);fill-opacity:1;" />
<path d="M 156.703125 407.863281 C 156.703125 417.449219 164.472656 425.21875 174.058594 425.21875 L 260.839844 425.21875 C 270.425781 425.21875 278.195312 417.449219 278.195312 407.863281 C 278.195312 398.28125 270.425781 390.507812 260.839844 390.507812 L 174.058594 390.507812 C 164.472656 390.507812 156.703125 398.28125 156.703125 407.863281 Z M 156.703125 407.863281 " style=" stroke:none;fill-rule:nonzero;fill:rgb(57.647059%,58.431373%,59.607843%);fill-opacity:1;" />
<path d="M 156.703125 442.574219 C 156.703125 452.160156 164.472656 459.933594 174.058594 459.933594 L 260.839844 459.933594 C 270.425781 459.933594 278.195312 452.160156 278.195312 442.574219 C 278.195312 432.988281 270.425781 425.21875 260.839844 425.21875 L 174.058594 425.21875 C 164.472656 425.21875 156.703125 432.992188 156.703125 442.574219 Z M 156.703125 442.574219 " style=" stroke:none;fill-rule:nonzero;fill:rgb(50.196078%,50.980392%,52.156863%);fill-opacity:1;" />
<path d="M 182.738281 477.289062 C 182.738281 496.460938 198.277344 512 217.449219 512 C 236.621094 512 252.160156 496.460938 252.160156 477.289062 L 252.160156 459.933594 L 182.738281 459.933594 Z M 182.738281 477.289062 " style=" stroke:none;fill-rule:nonzero;fill:rgb(66.27451%,48.627451%,31.372549%);fill-opacity:1;" />
<path d="M 156.703125 373.152344 C 156.703125 382.738281 164.472656 390.507812 174.058594 390.507812 L 260.839844 390.507812 C 270.425781 390.507812 278.195312 382.738281 278.195312 373.152344 C 278.195312 363.566406 270.425781 355.796875 260.839844 355.796875 L 174.058594 355.796875 C 164.472656 355.796875 156.703125 363.566406 156.703125 373.152344 Z M 156.703125 373.152344 " style=" stroke:none;fill-rule:nonzero;fill:rgb(65.490196%,66.27451%,67.45098%);fill-opacity:1;" />
<path d="M 200.09375 242.984375 L 174.058594 242.984375 C 159.679688 242.984375 148.023438 231.328125 148.023438 216.949219 C 148.023438 202.570312 159.679688 190.914062 174.058594 190.914062 C 188.4375 190.914062 200.09375 202.570312 200.09375 216.949219 L 200.09375 242.984375 L 217.449219 242.984375 L 217.449219 78.101562 C 140.765625 78.128906 78.625 140.316406 78.652344 217 C 78.675781 273.539062 112.976562 324.421875 165.382812 345.644531 C 181.910156 352.394531 199.597656 355.84375 217.449219 355.796875 L 217.449219 242.984375 Z M 200.09375 242.984375 " style=" stroke:none;fill-rule:nonzero;fill:rgb(100%,87.058824%,33.333333%);fill-opacity:1;" />
<path d="M 217.449219 78.101562 L 217.449219 242.984375 L 234.804688 242.984375 L 234.804688 216.949219 C 234.804688 202.570312 246.460938 190.914062 260.839844 190.914062 C 275.21875 190.914062 286.875 202.570312 286.875 216.949219 C 286.875 231.328125 275.21875 242.984375 260.839844 242.984375 L 217.449219 242.984375 L 217.449219 355.796875 C 235.300781 355.839844 252.988281 352.394531 269.515625 345.644531 C 340.59375 316.859375 374.875 235.90625 346.09375 164.828125 C 324.867188 112.425781 273.988281 78.121094 217.449219 78.101562 Z M 217.449219 78.101562 " style=" stroke:none;fill-rule:nonzero;fill:rgb(100%,89.411765%,46.666667%);fill-opacity:1;" />
<path d="M 217.449219 52.066406 C 212.65625 52.066406 208.769531 48.183594 208.769531 43.390625 L 208.769531 8.675781 C 208.769531 3.882812 212.65625 0 217.449219 0 C 222.242188 0 226.125 3.886719 226.125 8.675781 L 226.125 43.390625 C 226.125 48.183594 222.242188 52.066406 217.449219 52.066406 Z M 217.449219 52.066406 " style=" stroke:none;fill-rule:nonzero;fill:rgb(100%,59.607843%,6.666667%);fill-opacity:1;" />
<path d="M 94.726562 102.902344 C 92.425781 102.902344 90.214844 101.988281 88.589844 100.359375 L 64.039062 75.8125 C 60.710938 72.363281 60.804688 66.871094 64.253906 63.539062 C 67.617188 60.292969 72.949219 60.292969 76.3125 63.539062 L 100.859375 88.089844 C 104.25 91.480469 104.25 96.972656 100.859375 100.363281 C 99.230469 101.988281 97.027344 102.902344 94.726562 102.902344 Z M 94.726562 102.902344 " style=" stroke:none;fill-rule:nonzero;fill:rgb(100%,59.607843%,6.666667%);fill-opacity:1;" />
<path d="M 43.890625 225.625 L 9.175781 225.625 C 4.382812 225.625 0.5 221.742188 0.5 216.949219 C 0.5 212.15625 4.386719 208.269531 9.175781 208.269531 L 43.890625 208.269531 C 48.683594 208.269531 52.566406 212.15625 52.566406 216.949219 C 52.566406 221.742188 48.683594 225.625 43.890625 225.625 Z M 43.890625 225.625 " style=" stroke:none;fill-rule:nonzero;fill:rgb(100%,59.607843%,6.666667%);fill-opacity:1;" />
<path d="M 70.175781 372.902344 C 65.382812 372.898438 61.5 369.011719 61.5 364.222656 C 61.5 361.921875 62.414062 359.714844 64.039062 358.085938 L 88.589844 333.539062 C 91.917969 330.089844 97.414062 329.996094 100.859375 333.324219 C 104.308594 336.65625 104.402344 342.148438 101.074219 345.59375 C 101.003906 345.667969 100.933594 345.738281 100.859375 345.808594 L 76.3125 370.359375 C 74.683594 371.984375 72.476562 372.902344 70.175781 372.902344 Z M 70.175781 372.902344 " style=" stroke:none;fill-rule:nonzero;fill:rgb(100%,59.607843%,6.666667%);fill-opacity:1;" />
<path d="M 364.722656 372.902344 C 362.421875 372.898438 360.214844 371.984375 358.585938 370.359375 L 334.039062 345.808594 C 330.589844 342.476562 330.496094 336.984375 333.824219 333.535156 C 337.15625 330.089844 342.648438 329.996094 346.09375 333.324219 C 346.167969 333.394531 346.238281 333.464844 346.308594 333.535156 L 370.859375 358.085938 C 374.246094 361.476562 374.246094 366.972656 370.855469 370.359375 C 369.230469 371.984375 367.023438 372.902344 364.722656 372.902344 Z M 364.722656 372.902344 " style=" stroke:none;fill-rule:nonzero;fill:rgb(100%,59.607843%,6.666667%);fill-opacity:1;" />
<path d="M 425.71875 225.625 L 391.007812 225.625 C 386.214844 225.625 382.332031 221.742188 382.332031 216.949219 C 382.332031 212.15625 386.21875 208.269531 391.007812 208.269531 L 425.71875 208.269531 C 430.511719 208.269531 434.398438 212.15625 434.398438 216.949219 C 434.398438 221.742188 430.511719 225.625 425.71875 225.625 Z M 425.71875 225.625 " style=" stroke:none;fill-rule:nonzero;fill:rgb(100%,59.607843%,6.666667%);fill-opacity:1;" />
<path d="M 340.171875 102.902344 C 335.378906 102.902344 331.496094 99.015625 331.496094 94.222656 C 331.496094 91.921875 332.410156 89.71875 334.039062 88.089844 L 358.585938 63.539062 C 361.917969 60.09375 367.410156 59.996094 370.859375 63.328125 C 374.304688 66.65625 374.402344 72.148438 371.070312 75.597656 C 371 75.671875 370.929688 75.742188 370.859375 75.8125 L 346.308594 100.359375 C 344.679688 101.988281 342.472656 102.902344 340.171875 102.902344 Z M 340.171875 102.902344 " style=" stroke:none;fill-rule:nonzero;fill:rgb(100%,59.607843%,6.666667%);fill-opacity:1;" />
<path d="M 243.484375 242.984375 L 243.484375 355.796875 L 226.125 355.796875 L 226.125 242.984375 C 226.125 238.191406 230.011719 234.304688 234.804688 234.304688 C 239.597656 234.304688 243.484375 238.191406 243.484375 242.984375 Z M 243.484375 242.984375 " style=" stroke:none;fill-rule:nonzero;fill:rgb(100%,59.607843%,6.666667%);fill-opacity:1;" />
<path d="M 208.769531 242.984375 L 208.769531 355.796875 L 191.414062 355.796875 L 191.414062 242.984375 C 191.414062 238.191406 195.300781 234.304688 200.09375 234.304688 C 204.886719 234.304688 208.769531 238.191406 208.769531 242.984375 Z M 208.769531 242.984375 " style=" stroke:none;fill-rule:nonzero;fill:rgb(100%,59.607843%,6.666667%);fill-opacity:1;" />
<path d="M 260.839844 251.660156 C 256.046875 251.660156 252.160156 247.773438 252.160156 242.984375 C 252.160156 238.191406 256.046875 234.304688 260.839844 234.304688 C 270.425781 234.304688 278.195312 226.535156 278.195312 216.949219 C 278.195312 207.363281 270.425781 199.59375 260.839844 199.59375 C 251.253906 199.59375 243.484375 207.363281 243.484375 216.949219 C 243.484375 221.742188 239.597656 225.625 234.804688 225.625 C 230.011719 225.625 226.128906 221.742188 226.128906 216.949219 C 226.128906 197.777344 241.667969 182.238281 260.839844 182.238281 C 280.011719 182.238281 295.550781 197.777344 295.550781 216.949219 C 295.550781 236.121094 280.011719 251.660156 260.839844 251.660156 Z M 260.839844 251.660156 " style=" stroke:none;fill-rule:nonzero;fill:rgb(100%,59.607843%,6.666667%);fill-opacity:1;" />
<path d="M 174.058594 251.660156 C 154.886719 251.660156 139.347656 236.121094 139.347656 216.949219 C 139.347656 197.777344 154.886719 182.238281 174.058594 182.238281 C 193.230469 182.238281 208.769531 197.777344 208.769531 216.949219 C 208.769531 221.742188 204.886719 225.625 200.09375 225.625 C 195.300781 225.625 191.414062 221.742188 191.414062 216.949219 C 191.414062 207.363281 183.644531 199.59375 174.058594 199.59375 C 164.472656 199.59375 156.703125 207.363281 156.703125 216.949219 C 156.703125 226.535156 164.472656 234.304688 174.058594 234.304688 C 178.851562 234.304688 182.738281 238.191406 182.738281 242.984375 C 182.738281 247.773438 178.851562 251.660156 174.058594 251.660156 Z M 174.058594 251.660156 " style=" stroke:none;fill-rule:nonzero;fill:rgb(100%,59.607843%,6.666667%);fill-opacity:1;" />
<path d="M 260.839844 251.660156 L 174.058594 251.660156 C 169.265625 251.660156 165.382812 247.773438 165.382812 242.984375 C 165.382812 238.191406 169.269531 234.304688 174.058594 234.304688 L 260.839844 234.304688 C 265.632812 234.304688 269.515625 238.191406 269.515625 242.984375 C 269.515625 247.773438 265.632812 251.660156 260.839844 251.660156 Z M 260.839844 251.660156 " style=" stroke:none;fill-rule:nonzero;fill:rgb(100%,59.607843%,6.666667%);fill-opacity:1;" />
<path d="M 200.09375 251.660156 C 195.300781 251.660156 191.414062 247.773438 191.414062 242.984375 L 191.414062 216.949219 C 191.414062 212.15625 195.300781 208.269531 200.09375 208.269531 C 204.886719 208.269531 208.769531 212.15625 208.769531 216.949219 L 208.769531 242.984375 C 208.769531 247.777344 204.886719 251.660156 200.09375 251.660156 Z M 200.09375 251.660156 " style=" stroke:none;fill-rule:nonzero;fill:rgb(100%,59.607843%,6.666667%);fill-opacity:1;" />
<path d="M 234.804688 251.660156 C 230.011719 251.660156 226.128906 247.773438 226.128906 242.984375 L 226.128906 216.949219 C 226.128906 212.15625 230.011719 208.269531 234.804688 208.269531 C 239.597656 208.269531 243.484375 212.15625 243.484375 216.949219 L 243.484375 242.984375 C 243.484375 247.777344 239.597656 251.660156 234.804688 251.660156 Z M 234.804688 251.660156 " style=" stroke:none;fill-rule:nonzero;fill:rgb(100%,59.607843%,6.666667%);fill-opacity:1;" />
</g>
</svg>